<?xml version="1.0" encoding="UTF-8"?>
<!DOCTYPE svg PUBLIC "-//W3C//DTD SVG 1.1//EN" "http://www.w3.org/Graphics/SVG/1.1/DTD/svg11.dtd">
<!-- Creator: CorelDRAW X7 -->
<svg xmlns="http://www.w3.org/2000/svg" xml:space="preserve" width="154.476mm" height="48.6879mm" version="1.1" style="shape-rendering:geometricPrecision; text-rendering:geometricPrecision; image-rendering:optimizeQuality; fill-rule:evenodd; clip-rule:evenodd"
viewBox="0 0 15448 4869"
 xmlns:xlink="http://www.w3.org/1999/xlink">
 <defs>
  <style type="text/css">
   <![CDATA[
    .fil1 {fill:#FFCC00}
    .fil0 {fill:#4297CD;fill-rule:nonzero}
    .fil2 {fill:#FFCC00;fill-rule:nonzero}
   ]]>
  </style>
 </defs>
 <g id="Capa_x0020_1">
  <metadata id="CorelCorpID_0Corel-Layer"/>
  <g id="_1506028816">
   <g>
    <path class="fil0" d="M4869 2434c0,-303 -56,-594 -157,-862 -268,105 -528,221 -781,347 40,-448 -5,-824 -134,-1129 104,95 183,155 235,181 44,-104 77,-199 97,-284 -438,-425 -1036,-687 -1694,-687 -623,0 -1191,234 -1621,618 731,-69 1532,71 2331,464 18,-67 26,-151 26,-250 354,450 574,822 661,1115 -392,-95 -814,-158 -1267,-190 177,-71 260,-134 249,-190 -767,-594 -1469,-884 -2033,-920 -480,445 -781,1081 -781,1787 0,761 349,1440 896,1887 749,-60 1724,-1239 2059,-1683 -63,-80 -147,-131 -252,-155 445,-117 824,-253 1138,-407 -26,486 -100,900 -222,1239 -38,-101 -96,-181 -176,-240 -372,433 -1476,1327 -2249,1454 363,216 787,340 1241,340 999,0 1857,-602 2232,-1463 -57,-131 -150,-279 -281,-445 -23,67 -72,164 -148,292 -31,-482 -127,-884 -286,-1207 398,61 685,160 860,296 -65,42 -110,97 -134,166 63,93 117,214 155,346 24,-136 36,-276 36,-420zm-158 -863c-40,-105 -87,-207 -140,-305 -14,44 -33,89 -58,135l198 170z"/>
    <path class="fil1" d="M3731 1843c-275,-97 -578,-123 -897,-157 271,-243 405,-467 402,-670 242,372 411,618 495,827z"/>
    <path class="fil1" d="M4695 2354c-174,-100 -385,-172 -633,-215 132,305 204,593 219,862 129,-340 267,-556 414,-647z"/>
    <path class="fil1" d="M3599 3110c78,-312 125,-648 139,-906 -202,144 -531,231 -816,296 270,166 553,416 677,610z"/>
    <path class="fil1" d="M4591 1568c-311,-240 -550,-434 -657,-578 55,242 84,512 77,800 354,-150 568,-222 580,-222z"/>
    <path class="fil2" d="M6885 3474c0,160 -55,290 -166,389 -110,100 -246,150 -407,150l-1202 0 0 -299 1202 0c71,0 132,-23 183,-70 50,-46 76,-105 76,-177 0,-66 -22,-118 -65,-158 -43,-40 -98,-62 -166,-68l-1230 0 0 -291 1178 0c73,0 135,-20 186,-61 51,-40 77,-95 77,-164 0,-71 -25,-126 -75,-166 -50,-39 -113,-59 -188,-59l-1178 0 0 -291 1196 0c221,0 383,90 487,271 46,81 69,164 69,251 0,152 -52,275 -156,369 43,38 78,82 107,132 48,85 72,166 72,242zm715 539c-163,0 -304,-51 -421,-154 -117,-103 -176,-234 -176,-393l0 -758c0,-137 49,-254 147,-352 98,-98 215,-147 352,-147l1256 0 0 291 -1248 0c-57,0 -107,20 -149,61 -43,41 -64,90 -64,148l0 212 1049 0 0 0c185,21 322,111 412,269 48,86 72,176 72,273 0,162 -55,294 -165,397 -111,102 -247,153 -408,153l-657 0zm657 -807l-919 0 0 254c0,71 25,131 77,180 52,49 114,74 185,74l657 0c71,0 133,-25 184,-74 52,-49 78,-109 78,-180 0,-71 -25,-131 -76,-180 -51,-49 -113,-74 -186,-74zm1167 807c-157,0 -280,-50 -367,-150 -88,-99 -131,-232 -131,-397l0 -758c0,-137 48,-254 145,-352 97,-98 215,-147 353,-147l755 0c139,0 256,49 353,147 97,98 146,215 146,352l0 758c0,165 -44,298 -133,397 -88,100 -210,150 -366,150l-755 0zm0 -1513c-59,0 -108,20 -147,61 -38,40 -57,90 -57,147l0 751c0,170 68,255 204,255l755 0c137,0 205,-85 205,-255l0 -751c0,-57 -20,-107 -59,-147 -40,-41 -88,-61 -146,-61l-755 0z"/>
    <path class="fil0" d="M5055 953l212 0 0 686c0,39 10,69 31,89 20,20 50,30 90,30l237 0c40,0 70,-10 90,-30 21,-20 31,-50 31,-89l0 -686 212 0 0 701c0,98 -28,175 -83,230 -56,56 -132,83 -229,83l-278 0c-97,0 -174,-27 -229,-83 -56,-55 -84,-132 -84,-230l0 -701zm1339 0l492 0 0 208 -476 0c-43,0 -73,8 -89,25 -17,16 -25,47 -25,91l0 63 590 0 0 209 -590 0 0 74c0,44 8,74 24,90 17,17 47,25 90,25l476 0 0 209 -492 0c-112,0 -191,-24 -239,-71 -47,-48 -71,-128 -71,-241l0 -371c0,-113 23,-192 71,-240 47,-47 127,-71 239,-71zm914 0l516 0 0 208 -520 0c-34,0 -61,7 -79,23 -18,15 -27,37 -27,67 0,29 9,52 27,66 18,15 45,23 79,23l223 0c108,0 191,27 251,80 60,54 91,128 91,224 0,95 -31,169 -91,223 -60,53 -143,80 -251,80l-521 0 0 -209 526 0c41,0 71,-8 92,-24 21,-16 31,-39 31,-70 0,-32 -10,-56 -31,-72 -21,-15 -51,-23 -92,-23l-224 0c-99,0 -178,-27 -235,-80 -58,-53 -87,-126 -87,-218 0,-92 29,-165 87,-218 57,-53 136,-80 235,-80zm964 0l439 0 0 208 -419 0c-39,0 -68,10 -88,30 -20,20 -30,50 -30,90l0 338c0,39 10,69 30,89 20,20 49,30 88,30l419 0 0 209 -439 0c-97,0 -173,-28 -228,-83 -55,-55 -82,-131 -82,-229l0 -371c0,-98 27,-174 82,-229 55,-54 131,-82 228,-82z"/>
    <path class="fil1" d="M10996 2855c-56,0 -100,-18 -131,-53 -32,-36 -47,-84 -47,-143l0 -271c0,-49 17,-91 52,-126 35,-35 77,-53 126,-53l271 0c49,0 92,18 126,53 35,35 52,77 52,126l0 271c0,59 -15,107 -47,143 -32,35 -75,53 -131,53l-271 0zm29 -495c-16,0 -30,6 -41,17 -11,11 -16,25 -16,41l0 212c0,48 19,71 57,71l213 0c38,0 57,-23 57,-71l0 -212c0,-16 -5,-30 -16,-41 -11,-11 -25,-17 -41,-17l-213 0z"/>
   </g>
   <path class="fil2" d="M11855 3644c0,142 -106,213 -320,213l-382 0c-82,0 -153,-15 -213,-45 -81,-39 -121,-92 -121,-161l0 -90c0,-74 38,-130 115,-167 57,-29 128,-43 214,-43l552 0c-8,-51 -79,-76 -212,-76 -5,0 -12,0 -20,0 -7,1 -16,1 -26,2 0,0 -3,0 -7,0l-7 0 -12 0 -18 0c-39,0 -58,-25 -58,-73 0,-39 19,-58 58,-58 125,0 221,9 287,26 114,32 170,96 170,193l0 279zm-153 -37c0,-7 0,-16 0,-26 0,-11 -1,-23 -2,-37 0,-14 0,-26 -1,-36 0,-11 0,-19 0,-26l-555 0c-33,0 -66,6 -101,17 -45,16 -67,36 -67,61l0 90c0,26 23,46 69,60 30,11 64,16 103,16l389 0c58,0 98,-5 120,-17 30,-15 45,-49 45,-102zm422 191c0,40 -20,59 -58,59 -38,0 -61,-2 -67,-6 -21,-8 -32,-26 -32,-53l0 -787c0,-39 19,-58 58,-58 36,0 59,1 68,4 20,7 31,25 31,54l0 787zm1092 -167c0,147 -113,220 -339,220l-488 0 0 145c0,27 -11,45 -32,53 -6,3 -28,4 -67,4 -38,0 -57,-19 -57,-58l0 -638c0,-86 41,-146 123,-179 47,-21 125,-32 234,-32l250 0c250,0 376,70 376,209l0 276zm-158 2l0 -276c0,-38 -29,-62 -87,-74 -23,-4 -67,-6 -130,-6l-244 0c-139,0 -208,27 -208,83l0 360 488 0c121,0 181,-29 181,-87zm1262 165c0,28 -10,46 -31,53 -6,4 -29,6 -67,6 -39,0 -58,-19 -58,-58l0 -419c0,-44 -27,-73 -79,-87 -35,-7 -79,-10 -132,-10l-461 0 0 516c0,39 -19,58 -58,58 -38,0 -61,-2 -67,-6 -21,-7 -31,-25 -31,-53l0 -787c0,-29 10,-47 31,-54 8,-3 30,-4 67,-4 39,0 58,19 58,58l0 141 424 0c125,0 213,10 264,30 93,33 140,98 140,195l0 421zm1128 -154c0,142 -107,213 -321,213l-382 0c-82,0 -153,-15 -213,-45 -81,-39 -121,-92 -121,-161l0 -90c0,-74 38,-130 115,-167 57,-29 128,-43 214,-43l553 0c-9,-51 -79,-76 -213,-76 -5,0 -12,0 -19,0 -8,1 -17,1 -27,2 0,0 -3,0 -7,0l-7 0 -12 0 -18 0c-39,0 -58,-25 -58,-73 0,-39 19,-58 58,-58 125,0 221,9 287,26 114,32 171,96 171,193l0 279zm-154 -37c0,-7 0,-16 0,-26 0,-11 -1,-23 -1,-37 -1,-14 -1,-26 -1,-36 -1,-11 -1,-19 -1,-26l-555 0c-33,0 -66,6 -101,17 -45,16 -67,36 -67,61l0 90c0,26 23,46 69,60 30,11 64,16 103,16l389 0c58,0 98,-5 120,-17 30,-15 45,-49 45,-102z"/>
  </g>
 </g>
</svg>
