<?xml version="1.0" encoding="UTF-8" standalone="no"?>
<!-- Created with Inkscape (http://www.inkscape.org/) -->

<svg
   xmlns:dc="http://purl.org/dc/elements/1.1/"
   xmlns:cc="http://creativecommons.org/ns#"
   xmlns:rdf="http://www.w3.org/1999/02/22-rdf-syntax-ns#"
   xmlns:svg="http://www.w3.org/2000/svg"
   xmlns="http://www.w3.org/2000/svg"
   xmlns:sodipodi="http://sodipodi.sourceforge.net/DTD/sodipodi-0.dtd"
   xmlns:inkscape="http://www.inkscape.org/namespaces/inkscape"
   width="80"
   height="25.214912"
   id="svg3056"
   version="1.1"
   inkscape:version="0.48.4 r9939"
   sodipodi:docname="logoRodape.svg">
  <defs
     id="defs3058" />
  <sodipodi:namedview
     id="base"
     pagecolor="#ffffff"
     bordercolor="#ffffff"
     borderopacity="0.0"
     inkscape:pageopacity="0.0"
     inkscape:pageshadow="0"
     inkscape:zoom="5.6568542"
     inkscape:cx="60.325471"
     inkscape:cy="14.341695"
     inkscape:document-units="px"
     inkscape:current-layer="layer1"
     showgrid="false"
     inkscape:showpageshadow="false"
     showborder="false"
     fit-margin-top="0"
     fit-margin-left="0"
     fit-margin-right="0"
     fit-margin-bottom="0"
     inkscape:window-width="1366"
     inkscape:window-height="744"
     inkscape:window-x="0"
     inkscape:window-y="24"
     inkscape:window-maximized="1" />
  <metadata
     id="metadata3061">
    <rdf:RDF>
      <cc:Work
         rdf:about="">
        <dc:format>image/svg+xml</dc:format>
        <dc:type
           rdf:resource="http://purl.org/dc/dcmitype/StillImage" />
        <dc:title></dc:title>
      </cc:Work>
    </rdf:RDF>
  </metadata>
  <g
     inkscape:label="Layer 1"
     inkscape:groupmode="layer"
     id="layer1"
     transform="translate(129.3875,-670.54798)">
    <g
       id="g3204"
       transform="matrix(0.14615972,0,0,0.14615972,-75.606721,547.29924)"
       style="fill:#cccccc">
      <path
         class="fil0"
         d="m -195.44276,929.48732 c 0,-10.73575 -1.98417,-21.04633 -5.56275,-30.54198 -9.49566,3.72031 -18.70786,7.83037 -27.67204,12.29474 1.41727,-15.87333 -0.17715,-29.19559 -4.74782,-40.00221 3.68488,3.366 6.48397,5.49189 8.32641,6.41311 1.55899,-3.68488 2.72823,-7.05088 3.43686,-10.06256 -15.51902,-15.0584 -36.70708,-24.34147 -60.02103,-24.34147 -22.07385,0 -42.19896,8.29099 -57.43453,21.8967 25.90046,-2.44478 54.28112,2.51564 82.59092,16.44023 0.63777,-2.37391 0.92122,-5.35016 0.92122,-8.85788 12.54277,15.94419 20.33771,29.12472 23.42025,39.50616 -13.88916,-3.36599 -28.84127,-5.59818 -44.89176,-6.73199 6.27138,-2.51564 9.2122,-4.74783 8.82245,-6.73199 -27.17599,-21.04634 -52.04893,-31.32148 -72.03232,-32.59702 -17.00714,15.76704 -27.67203,38.3015 -27.67203,63.31616 0,26.9634 12.36561,51.02142 31.74666,66.85931 26.53822,-2.12589 61.08398,-43.89967 72.95354,-59.63127 -2.23219,-2.83453 -5.20844,-4.64153 -8.92875,-5.49189 15.76704,-4.14549 29.19559,-8.96418 40.3211,-14.42064 -0.92122,17.21973 -3.54316,31.88838 -7.86581,43.89968 -1.3464,-3.57859 -3.40142,-6.41311 -6.23595,-8.50357 -13.18053,15.34185 -52.29695,47.01765 -79.68553,51.51746 12.86165,7.6532 27.88462,12.0467 43.97054,12.0467 35.39611,0 65.79637,-21.32977 79.0832,-51.83632 -2.0196,-4.64154 -5.31473,-9.8854 -9.95627,-15.76704 -0.81492,2.37391 -2.55107,5.81077 -5.24386,10.34601 -1.09838,-17.078 -4.49981,-31.32148 -10.13342,-42.76586 14.10175,2.16132 24.2706,5.66904 30.47112,10.48773 -2.30305,1.48813 -3.89747,3.43686 -4.74783,5.88164 2.23219,3.29513 4.14549,7.58235 5.49189,12.25931 0.85036,-4.81869 1.27554,-9.77911 1.27554,-14.88125 z m -5.59819,-30.57742 c -1.41726,-3.72031 -3.08254,-7.33432 -4.96041,-10.80662 -0.49604,1.55899 -1.16924,3.15341 -2.05503,4.78326 l 7.01544,6.02336 z"
         id="path13"
         inkscape:connector-curvature="0"
         style="fill:#cccccc;fill-rule:nonzero" />
      <path
         class="fil1"
         d="m -235.76385,908.54728 c -9.74368,-3.43686 -20.47943,-4.35808 -31.7821,-5.56275 9.60195,-8.60986 14.34978,-16.54653 14.24348,-23.73913 8.57444,13.18053 14.56237,21.89669 17.53862,29.30188 z"
         id="path15"
         inkscape:connector-curvature="0"
         style="fill:#cccccc;fill-rule:evenodd" />
      <path
         class="fil1"
         d="m -201.60785,926.6528 c -6.16509,-3.54315 -13.64114,-6.09423 -22.42816,-7.61778 4.67696,10.80662 7.22803,21.0109 7.7595,30.54198 4.57067,-12.04672 9.46022,-19.69993 14.66866,-22.9242 z"
         id="path17"
         inkscape:connector-curvature="0"
         style="fill:#cccccc;fill-rule:evenodd" />
      <path
         class="fil1"
         d="m -240.44082,953.43904 c 2.76366,-11.05464 4.42894,-22.95963 4.92499,-32.10097 -7.15717,5.10214 -18.81415,8.18468 -28.91214,10.48773 9.56652,5.88164 19.59364,14.73952 23.98715,21.61324 z"
         id="path19"
         inkscape:connector-curvature="0"
         style="fill:#cccccc;fill-rule:evenodd" />
      <path
         class="fil1"
         d="m -205.29273,898.80361 c -11.01921,-8.50357 -19.48735,-15.37729 -23.27852,-20.47943 1.94873,8.57443 2.97625,18.14095 2.72823,28.34523 12.54276,-5.31473 20.12511,-7.8658 20.55029,-7.8658 z"
         id="path21"
         inkscape:connector-curvature="0"
         style="fill:#cccccc;fill-rule:evenodd" />
      <path
         class="fil2"
         d="m -124.01278,966.33612 c 0,5.66905 -1.94873,10.27515 -5.88163,13.78287 -3.89747,3.54315 -8.71616,5.31473 -14.42064,5.31473 l -42.58871,0 0,-10.59403 42.58871,0 c 2.51564,0 4.67696,-0.81493 6.48397,-2.48021 1.77158,-1.62985 2.6928,-3.72031 2.6928,-6.27138 0,-2.33848 -0.77949,-4.18092 -2.30305,-5.59818 -1.52356,-1.41727 -3.47229,-2.19676 -5.88164,-2.40935 l -43.58079,0 0,-10.31058 41.73835,0 c 2.58651,0 4.78326,-0.70863 6.59027,-2.16132 1.80701,-1.41726 2.72823,-3.36599 2.72823,-5.81077 0,-2.51564 -0.88579,-4.46437 -2.65737,-5.88163 -1.77157,-1.38183 -4.00376,-2.09047 -6.66113,-2.09047 l -41.73835,0 0,-10.31057 42.37612,0 c 7.83037,0 13.57028,3.18883 17.25516,9.60194 1.62985,2.86996 2.44478,5.81078 2.44478,8.89332 0,5.38559 -1.84244,9.74367 -5.52732,13.07423 1.52355,1.3464 2.76366,2.90539 3.79117,4.67697 1.70072,3.01168 2.55107,5.88163 2.55107,8.57443 z m 25.333551,19.0976 c -5.775341,0 -10.771181,-1.80701 -14.916671,-5.45646 -4.14549,-3.64945 -6.23596,-8.29098 -6.23596,-13.92459 l 0,-26.85711 c 0,-4.85412 1.73615,-8.99961 5.20844,-12.4719 3.47229,-3.47229 7.61778,-5.20843 12.4719,-5.20843 l 44.502021,0 0,10.31057 -44.218561,0 c -2.0196,0 -3.79118,0.70864 -5.2793,2.16133 -1.52356,1.45269 -2.26762,3.18884 -2.26762,5.24387 l 0,7.51148 37.167681,0 0,0 c 6.55484,0.74406 11.40896,3.9329 14.5978,9.53108 1.70071,3.04712 2.55107,6.23595 2.55107,9.67281 0,5.73991 -1.94874,10.41688 -5.84621,14.06632 -3.9329,3.61402 -8.75159,5.42103 -14.45606,5.42103 l -23.27853,0 z m 23.27853,-28.59325 -32.561591,0 0,8.99961 c 0,2.51564 0.88579,4.64153 2.72823,6.37768 1.84244,1.73614 4.03919,2.62193 6.554831,2.62193 l 23.27853,0 c 2.51564,0 4.71239,-0.88579 6.5194,-2.62193 1.84244,-1.73615 2.76366,-3.86204 2.76366,-6.37768 0,-2.51564 -0.88579,-4.64153 -2.6928,-6.37768 -1.80701,-1.73614 -4.00376,-2.62193 -6.59026,-2.62193 z m 41.3486,28.59325 c -5.56275,0 -9.92083,-1.77158 -13.00337,-5.31473 -3.11798,-3.50772 -4.64153,-8.22012 -4.64153,-14.06632 l 0,-26.85711 c 0,-4.85412 1.70071,-8.99961 5.13757,-12.4719 3.43686,-3.47229 7.61778,-5.20843 12.50733,-5.20843 l 26.7508197,0 c 4.92498,0 9.07047,1.73614 12.50733,5.20843 3.43686,3.47229 5.1730003,7.61778 5.1730003,12.4719 l 0,26.85711 c 0,5.8462 -1.5589803,10.5586 -4.7123903,14.06632 -3.11798,3.54315 -7.44062,5.31473 -12.96794,5.31473 l -26.7508197,0 z m 0,-53.60792 c -2.09046,0 -3.8266,0.70864 -5.20843,2.16133 -1.3464,1.41726 -2.0196,3.18884 -2.0196,5.20843 l 0,26.60909 c 0,6.02336 2.40934,9.03504 7.22803,9.03504 l 26.7508197,0 c 4.85412,0 7.26346001,-3.01168 7.26346001,-9.03504 l 0,-26.60909 c 0,-2.01959 -0.70863,-3.79117 -2.09046001,-5.20843 -1.41726,-1.45269 -3.11798,-2.16133 -5.173,-2.16133 l -26.7508197,0 z"
         id="path23"
         inkscape:connector-curvature="0"
         style="fill:#cccccc;fill-rule:nonzero" />
      <path
         class="fil0"
         d="m -188.8525,877.01321 7.51149,0 0,24.30604 c 0,1.38183 0.35432,2.44477 1.09838,3.15341 0.70863,0.70863 1.77158,1.06294 3.18884,1.06294 l 8.39727,0 c 1.41726,0 2.48021,-0.35431 3.18884,-1.06294 0.74406,-0.70864 1.09838,-1.77158 1.09838,-3.15341 l 0,-24.30604 7.51149,0 0,24.83751 c 0,3.47229 -0.99209,6.20052 -2.94082,8.14926 -1.98417,1.98416 -4.67697,2.94081 -8.11383,2.94081 l -9.84996,0 c -3.43686,0 -6.16509,-0.95665 -8.11383,-2.94081 -1.98416,-1.94874 -2.97625,-4.67697 -2.97625,-8.14926 l 0,-24.83751 z m 47.44284,0 17.43231,0 0,7.36976 -16.86541,0 c -1.52355,0 -2.5865,0.28345 -3.15341,0.88579 -0.60233,0.56691 -0.88578,1.66528 -0.88578,3.22427 l 0,2.23219 20.9046,0 0,7.40519 -20.9046,0 0,2.62193 c 0,1.55899 0.28345,2.62194 0.85035,3.18884 0.60234,0.60234 1.66529,0.88579 3.18884,0.88579 l 16.86541,0 0,7.40519 -17.43231,0 c -3.96834,0 -6.76743,-0.85035 -8.46814,-2.51564 -1.66528,-1.70071 -2.51564,-4.53523 -2.51564,-8.539 l 0,-13.1451 c 0,-4.00376 0.81492,-6.80285 2.51564,-8.50357 1.66528,-1.66528 4.4998,-2.51564 8.46814,-2.51564 z m 32.38442,0 18.282681,0 0,7.36976 -18.424401,0 c -1.20467,0 -2.16133,0.24802 -2.79909,0.81493 -0.63777,0.53147 -0.95666,1.31096 -0.95666,2.37391 0,1.02752 0.31889,1.84244 0.95666,2.33848 0.63776,0.53148 1.59442,0.81493 2.79909,0.81493 l 7.90123,0 c 3.826611,0 6.767431,0.95665 8.893321,2.83452 2.12589,1.9133 3.22427,4.53524 3.22427,7.93667 0,3.36599 -1.09838,5.98793 -3.22427,7.90123 -2.12589,1.87787 -5.06671,2.83452 -8.893321,2.83452 l -18.45983,0 0,-7.40519 18.63699,0 c 1.452691,0 2.515641,-0.28345 3.259701,-0.85036 0.74406,-0.5669 1.09838,-1.38183 1.09838,-2.4802 0,-1.13381 -0.35432,-1.98417 -1.09838,-2.55107 -0.74406,-0.53148 -1.80701,-0.81493 -3.259701,-0.81493 l -7.93667,0 c -3.50772,0 -6.30681,-0.95665 -8.32641,-2.83452 -2.05503,-1.87787 -3.08254,-4.46438 -3.08254,-7.72408 0,-3.2597 1.02751,-5.8462 3.08254,-7.72407 2.0196,-1.87788 4.81869,-2.83453 8.32641,-2.83453 z m 34.156011,0 15.55444,0 0,7.36976 -14.84581,0 c -1.38183,0 -2.40935,0.35432 -3.11798,1.06295 -0.70863,0.70863 -1.06294,1.77158 -1.06294,3.18884 l 0,11.97586 c 0,1.38183 0.35431,2.44477 1.06294,3.1534 0.70863,0.70864 1.73615,1.06295 3.11798,1.06295 l 14.84581,0 0,7.40519 -15.55444,0 c -3.43686,0 -6.12966,-0.99208 -8.07839,-2.94081 -1.94874,-1.94874 -2.90539,-4.64154 -2.90539,-8.11383 l 0,-13.1451 c 0,-3.47229 0.95665,-6.16509 2.90539,-8.11382 1.94873,-1.9133 4.64153,-2.90539 8.07839,-2.90539 z"
         id="path25"
         inkscape:connector-curvature="0"
         style="fill:#cccccc;fill-rule:nonzero" />
      <path
         class="fil1"
         d="m 21.646281,944.404 c -1.98416,0 -3.54315,-0.63777 -4.64153,-1.87787 -1.13381,-1.27554 -1.66528,-2.97625 -1.66528,-5.06671 l 0,-9.60195 c 0,-1.73614 0.60234,-3.22427 1.84244,-4.46437 1.2401,-1.24011 2.72823,-1.87787 4.46437,-1.87787 l 9.60195,0 c 1.73615,0 3.2597,0.63776 4.46438,1.87787 1.2401,1.2401 1.84244,2.72823 1.84244,4.46437 l 0,9.60195 c 0,2.09046 -0.53148,3.79117 -1.66529,5.06671 -1.13381,1.2401 -2.65736,1.87787 -4.64153,1.87787 l -9.60195,0 z m 1.02752,-17.53861 c -0.56691,0 -1.06295,0.21259 -1.45269,0.60234 -0.38975,0.38974 -0.56691,0.88578 -0.56691,1.45269 l 0,7.51148 c 0,1.70072 0.6732,2.51564 2.0196,2.51564 l 7.54692,0 c 1.3464,0 2.01959,-0.81492 2.01959,-2.51564 l 0,-7.51148 c 0,-0.56691 -0.17715,-1.06295 -0.5669,-1.45269 -0.38975,-0.38975 -0.88579,-0.60234 -1.45269,-0.60234 l -7.54692,0 z"
         id="path27"
         inkscape:connector-curvature="0"
         style="fill:#cccccc;fill-rule:evenodd" />
      <path
         style="fill:#cccccc;fill-rule:nonzero"
         inkscape:connector-curvature="0"
         id="path29"
         d="m 52.081981,972.35948 c 0,5.03128 -3.75575,7.54692 -11.3381,7.54692 l -13.53484,0 c -2.90539,0 -5.42103,-0.53147 -7.54692,-1.59442 -2.86996,-1.38183 -4.28722,-3.2597 -4.28722,-5.70448 l 0,-3.18884 c 0,-2.62193 1.3464,-4.6061 4.07463,-5.91706 2.0196,-1.02752 4.53524,-1.52356 7.58235,-1.52356 l 19.55821,0 c -0.28345,-1.80701 -2.79909,-2.6928 -7.51149,-2.6928 -0.17716,0 -0.42518,0 -0.70863,0 -0.24802,0.0354 -0.5669,0.0354 -0.92122,0.0709 0,0 -0.10629,0 -0.24802,0 l -0.24802,0 -0.42518,0 -0.63777,0 c -1.38183,0 -2.05503,-0.88579 -2.05503,-2.58651 0,-1.38183 0.6732,-2.05503 2.05503,-2.05503 4.42895,0 7.83037,0.31889 10.16885,0.92122 4.0392,1.13381 6.02337,3.40143 6.02337,6.83829 l 0,9.8854 z m -5.42103,-1.31097 c 0,-0.24802 0,-0.5669 0,-0.92122 0,-0.38974 -0.0354,-0.81492 -0.0709,-1.31096 0,-0.49604 0,-0.92122 -0.0354,-1.27554 0,-0.38974 0,-0.6732 0,-0.92122 l -19.66451,0 c -1.16924,0 -2.33848,0.21259 -3.57858,0.60234 -1.59442,0.5669 -2.37392,1.27553 -2.37392,2.16132 l 0,3.18884 c 0,0.92122 0.81493,1.62985 2.44478,2.12589 1.06295,0.38975 2.26762,0.56691 3.64945,0.56691 l 13.78287,0 c 2.05503,0 3.47229,-0.17716 4.25178,-0.60234 1.06295,-0.53147 1.59442,-1.73614 1.59442,-3.61402 z m 14.95211,6.76743 c 0,1.41726 -0.70863,2.09046 -2.05503,2.09046 -1.3464,0 -2.16132,-0.0709 -2.37391,-0.21259 -0.74406,-0.28345 -1.13381,-0.92122 -1.13381,-1.87787 l 0,-27.88462 c 0,-1.38183 0.6732,-2.05503 2.05503,-2.05503 1.27553,0 2.09046,0.0354 2.40934,0.14172 0.70863,0.24802 1.09838,0.88579 1.09838,1.91331 l 0,27.88462 z m 38.691239,-5.91707 c 0,5.20844 -4.003759,7.79494 -12.011289,7.79494 l -17.29059,0 0,5.13757 c 0,0.95666 -0.38975,1.59442 -1.13381,1.87788 -0.21259,0.10629 -0.99208,0.14172 -2.37391,0.14172 -1.3464,0 -2.0196,-0.6732 -2.0196,-2.05503 l 0,-22.60532 c 0,-3.04711 1.45269,-5.17301 4.35808,-6.34225 1.66528,-0.74406 4.42894,-1.13381 8.29098,-1.13381 l 8.85788,0 c 8.85789,0 13.322259,2.48021 13.322259,7.4052 l 0,9.7791 z m -5.598179,0.0709 0,-9.7791 c 0,-1.3464 -1.02752,-2.19676 -3.08254,-2.62193 -0.81493,-0.14173 -2.37392,-0.21259 -4.6061,-0.21259 l -8.6453,0 c -4.92498,0 -7.36976,0.95665 -7.36976,2.94081 l 0,12.75536 17.29059,0 c 4.28722,0 6.41311,-1.02752 6.41311,-3.08255 z m 44.714599,5.84621 c 0,0.99208 -0.35431,1.62985 -1.09837,1.87787 -0.21259,0.14173 -1.02752,0.21259 -2.37392,0.21259 -1.38183,0 -2.05503,-0.6732 -2.05503,-2.05503 l 0,-14.84581 c 0,-1.55899 -0.95665,-2.58651 -2.79909,-3.08255 -1.2401,-0.24802 -2.79909,-0.35431 -4.67696,-0.35431 l -16.33394,0 0,18.28267 c 0,1.38183 -0.6732,2.05503 -2.05503,2.05503 -1.3464,0 -2.16133,-0.0709 -2.37391,-0.21259 -0.74407,-0.24802 -1.09838,-0.88579 -1.09838,-1.87787 l 0,-27.88462 c 0,-1.02752 0.35431,-1.66529 1.09838,-1.91331 0.28345,-0.10629 1.06294,-0.14172 2.37391,-0.14172 1.38183,0 2.05503,0.6732 2.05503,2.05503 l 0,4.99584 15.02297,0 c 4.42894,0 7.54692,0.35432 9.35393,1.06295 3.29513,1.16924 4.96041,3.47229 4.96041,6.90915 l 0,14.91668 z m 39.96678,-5.45646 c 0,5.03128 -3.79117,7.54692 -11.37352,7.54692 l -13.53485,0 c -2.90539,0 -5.42103,-0.53147 -7.54692,-1.59442 -2.86996,-1.38183 -4.28722,-3.2597 -4.28722,-5.70448 l 0,-3.18884 c 0,-2.62193 1.3464,-4.6061 4.07463,-5.91706 2.0196,-1.02752 4.53524,-1.52356 7.58235,-1.52356 l 19.59364,0 c -0.31888,-1.80701 -2.79909,-2.6928 -7.54692,-2.6928 -0.17715,0 -0.42518,0 -0.6732,0 -0.28345,0.0354 -0.60233,0.0354 -0.95665,0.0709 0,0 -0.10629,0 -0.24802,0 l -0.24802,0 -0.42518,0 -0.63777,0 c -1.38183,0 -2.05502,-0.88579 -2.05502,-2.58651 0,-1.38183 0.67319,-2.05503 2.05502,-2.05503 4.42895,0 7.83037,0.31889 10.16886,0.92122 4.03919,1.13381 6.05879,3.40143 6.05879,6.83829 l 0,9.8854 z m -5.45646,-1.31097 c 0,-0.24802 0,-0.5669 0,-0.92122 0,-0.38974 -0.0354,-0.81492 -0.0354,-1.31096 -0.0354,-0.49604 -0.0354,-0.92122 -0.0354,-1.27554 -0.0354,-0.38974 -0.0354,-0.6732 -0.0354,-0.92122 l -19.66451,0 c -1.16924,0 -2.33848,0.21259 -3.57858,0.60234 -1.59442,0.5669 -2.37392,1.27553 -2.37392,2.16132 l 0,3.18884 c 0,0.92122 0.81493,1.62985 2.44478,2.12589 1.06295,0.38975 2.26762,0.56691 3.64945,0.56691 l 13.78287,0 c 2.05503,0 3.47229,-0.17716 4.25178,-0.60234 1.06295,-0.53147 1.59442,-1.73614 1.59442,-3.61402 z"
         class="fil2" />
    </g>
  </g>
</svg>
